grf
version=1
nRows=21
nColumns=46
inDegrees=yes
endheader
time	ground_force_1_vx	ground_force_1_vy	ground_force_1_vz	ground_force_1_px	ground_force_1_py	ground_force_1_pz	ground_moment_1_mx	ground_moment_1_my	ground_moment_1_mz	ground_force_2_vx	ground_force_2_vy	ground_force_2_vz	ground_force_2_px	ground_force_2_py	ground_force_2_pz	ground_moment_2_mx	ground_moment_2_my	ground_moment_2_mz	ground_force_3_vx	ground_force_3_vy	ground_force_3_vz	ground_force_3_px	ground_force_3_py	ground_force_3_pz	ground_moment_3_mx	ground_moment_3_my	ground_moment_3_mz	ground_force_4_vx	ground_force_4_vy	ground_force_4_vz	ground_force_4_px	ground_force_4_py	ground_force_4_pz	ground_moment_4_mx	ground_moment_4_my	ground_moment_4_mz	ground_force_5_vx	ground_force_5_vy	ground_force_5_vz	ground_force_5_px	ground_force_5_py	ground_force_5_pz	ground_moment_5_mx	ground_moment_5_my	ground_moment_5_mz
0.621000	0.000000	0.000000	0.000000	0.000000	0.000000	0.000000	0.000000	0.000000	0.000000	0.000000	0.000000	0.000000	0.000000	0.000000	0.000000	0.000000	0.000000	0.000000	0.000000	0.000000	0.000000	0.000000	0.000000	0.000000	0.000000	0.000000	0.000000	3.196006	495.938634	-80.051437	0.184835	0.000000	-0.899880	0.000000	3.533394	0.000000	-1.233456	502.586560	87.233470	0.213567	0.000000	-1.572485	0.000000	-4.569899	-0.000000
0.621500	0.000000	0.000000	0.000000	0.000000	0.000000	0.000000	0.000000	0.000000	0.000000	0.000000	0.000000	0.000000	0.000000	0.000000	0.000000	0.000000	0.000000	0.000000	0.000000	0.000000	0.000000	0.000000	0.000000	0.000000	0.000000	0.000000	0.000000	3.142652	495.965668	-79.993962	0.184885	0.000000	-0.899860	0.000000	3.543297	0.000000	-1.252790	502.965491	87.385082	0.213616	0.000000	-1.572522	0.000000	-4.572405	-0.000000
0.622000	0.000000	0.000000	0.000000	0.000000	0.000000	0.000000	0.000000	0.000000	0.000000	0.000000	0.000000	0.000000	0.000000	0.000000	0.000000	0.000000	0.000000	0.000000	0.000000	0.000000	0.000000	0.000000	0.000000	0.000000	0.000000	0.000000	0.000000	3.090615	495.997552	-79.936454	0.184934	0.000000	-0.899841	0.000000	3.553217	0.000000	-1.270899	503.338310	87.534123	0.213665	0.000000	-1.572558	0.000000	-4.574866	-0.000000
0.622500	0.000000	0.000000	0.000000	0.000000	0.000000	0.000000	0.000000	0.000000	0.000000	0.000000	0.000000	0.000000	0.000000	0.000000	0.000000	0.000000	0.000000	0.000000	0.000000	0.000000	0.000000	0.000000	0.000000	0.000000	0.000000	0.000000	0.000000	3.039982	496.034720	-79.879058	0.184983	0.000000	-0.899822	0.000000	3.563154	0.000000	-1.287770	503.705223	87.680500	0.213713	0.000000	-1.572595	0.000000	-4.577285	-0.000000
0.623000	0.000000	0.000000	0.000000	0.000000	0.000000	0.000000	0.000000	0.000000	0.000000	0.000000	0.000000	0.000000	0.000000	0.000000	0.000000	0.000000	0.000000	0.000000	0.000000	0.000000	0.000000	0.000000	0.000000	0.000000	0.000000	0.000000	0.000000	2.990840	496.077604	-79.821918	0.185031	0.000000	-0.899803	0.000000	3.573109	0.000000	-1.303399	504.066447	87.824139	0.213762	0.000000	-1.572631	0.000000	-4.579663	-0.000000
0.623500	0.000000	0.000000	0.000000	0.000000	0.000000	0.000000	0.000000	0.000000	0.000000	0.000000	0.000000	0.000000	0.000000	0.000000	0.000000	0.000000	0.000000	0.000000	0.000000	0.000000	0.000000	0.000000	0.000000	0.000000	0.000000	0.000000	0.000000	2.943279	496.126630	-79.765176	0.185079	0.000000	-0.899785	0.000000	3.583086	0.000000	-1.317784	504.422199	87.964977	0.213810	0.000000	-1.572667	0.000000	-4.582003	-0.000000
0.624000	0.000000	0.000000	0.000000	0.000000	0.000000	0.000000	0.000000	0.000000	0.000000	0.000000	0.000000	0.000000	0.000000	0.000000	0.000000	0.000000	0.000000	0.000000	0.000000	0.000000	0.000000	0.000000	0.000000	0.000000	0.000000	0.000000	0.000000	2.897385	496.182212	-79.708961	0.185127	0.000000	-0.899766	0.000000	3.593085	0.000000	-1.330926	504.772689	88.102964	0.213858	0.000000	-1.572702	0.000000	-4.584307	-0.000000
0.624500	0.000000	0.000000	0.000000	0.000000	0.000000	0.000000	0.000000	0.000000	0.000000	0.000000	0.000000	0.000000	0.000000	0.000000	0.000000	0.000000	0.000000	0.000000	0.000000	0.000000	0.000000	0.000000	0.000000	0.000000	0.000000	0.000000	0.000000	2.853247	496.244745	-79.653394	0.185174	0.000000	-0.899749	0.000000	3.603110	0.000000	-1.342826	505.118124	88.238060	0.213906	0.000000	-1.572738	0.000000	-4.586576	-0.000000
0.625000	0.000000	0.000000	0.000000	0.000000	0.000000	0.000000	0.000000	0.000000	0.000000	0.000000	0.000000	0.000000	0.000000	0.000000	0.000000	0.000000	0.000000	0.000000	0.000000	0.000000	0.000000	0.000000	0.000000	0.000000	0.000000	0.000000	0.000000	2.810949	496.314596	-79.598589	0.185220	0.000000	-0.899731	0.000000	3.613165	0.000000	-1.353486	505.458712	88.370235	0.213954	0.000000	-1.572773	0.000000	-4.588809	-0.000000
0.625500	0.000000	0.000000	0.000000	0.000000	0.000000	0.000000	0.000000	0.000000	0.000000	0.000000	0.000000	0.000000	0.000000	0.000000	0.000000	0.000000	0.000000	0.000000	0.000000	0.000000	0.000000	0.000000	0.000000	0.000000	0.000000	0.000000	0.000000	2.770573	496.392109	-79.544656	0.185266	0.000000	-0.899714	0.000000	3.623254	0.000000	-1.362909	505.794675	88.499467	0.214002	0.000000	-1.572808	0.000000	-4.591010	-0.000000
0.626000	0.000000	0.000000	0.000000	0.000000	0.000000	0.000000	0.000000	0.000000	0.000000	0.000000	0.000000	0.000000	0.000000	0.000000	0.000000	0.000000	0.000000	0.000000	0.000000	0.000000	0.000000	0.000000	0.000000	0.000000	0.000000	0.000000	0.000000	2.732199	496.477607	-79.491706	0.185310	0.000000	-0.899698	0.000000	3.633378	0.000000	-1.371102	506.126240	88.625744	0.214050	0.000000	-1.572842	0.000000	-4.593177	-0.000000
0.626500	0.000000	0.000000	0.000000	0.000000	0.000000	0.000000	0.000000	0.000000	0.000000	0.000000	0.000000	0.000000	0.000000	0.000000	0.000000	0.000000	0.000000	0.000000	0.000000	0.000000	0.000000	0.000000	0.000000	0.000000	0.000000	0.000000	0.000000	2.695905	496.571402	-79.439842	0.185355	0.000000	-0.899682	0.000000	3.643539	0.000000	-1.378079	506.453631	88.749066	0.214097	0.000000	-1.572876	0.000000	-4.595315	-0.000000
0.627000	0.000000	0.000000	0.000000	0.000000	0.000000	0.000000	0.000000	0.000000	0.000000	0.000000	0.000000	0.000000	0.000000	0.000000	0.000000	0.000000	0.000000	0.000000	0.000000	0.000000	0.000000	0.000000	0.000000	0.000000	0.000000	0.000000	0.000000	2.661770	496.673800	-79.389161	0.185398	0.000000	-0.899666	0.000000	3.653739	0.000000	-1.383858	506.777049	88.869445	0.214145	0.000000	-1.572909	0.000000	-4.597427	-0.000000
0.627500	0.000000	0.000000	0.000000	0.000000	0.000000	0.000000	0.000000	0.000000	0.000000	0.000000	0.000000	0.000000	0.000000	0.000000	0.000000	0.000000	0.000000	0.000000	0.000000	0.000000	0.000000	0.000000	0.000000	0.000000	0.000000	0.000000	0.000000	2.629870	496.785091	-79.339755	0.185441	0.000000	-0.899650	0.000000	3.663981	0.000000	-1.388466	507.096671	88.986902	0.214192	0.000000	-1.572943	0.000000	-4.599516	-0.000000
0.628000	0.000000	0.000000	0.000000	0.000000	0.000000	0.000000	0.000000	0.000000	0.000000	0.000000	0.000000	0.000000	0.000000	0.000000	0.000000	0.000000	0.000000	0.000000	0.000000	0.000000	0.000000	0.000000	0.000000	0.000000	0.000000	0.000000	0.000000	2.600276	496.905544	-79.291713	0.185482	0.000000	-0.899635	0.000000	3.674268	0.000000	-1.391931	507.412649	89.101471	0.214239	0.000000	-1.572975	0.000000	-4.601587	-0.000000
0.628500	0.000000	0.000000	0.000000	0.000000	0.000000	0.000000	0.000000	0.000000	0.000000	0.000000	0.000000	0.000000	0.000000	0.000000	0.000000	0.000000	0.000000	0.000000	0.000000	0.000000	0.000000	0.000000	0.000000	0.000000	0.000000	0.000000	0.000000	2.573051	497.035395	-79.245125	0.185523	0.000000	-0.899620	0.000000	3.684605	0.000000	-1.394289	507.725121	89.213202	0.214286	0.000000	-1.573008	0.000000	-4.603642	-0.000000
0.629000	0.000000	0.000000	0.000000	0.000000	0.000000	0.000000	0.000000	0.000000	0.000000	0.000000	0.000000	0.000000	0.000000	0.000000	0.000000	0.000000	0.000000	0.000000	0.000000	0.000000	0.000000	0.000000	0.000000	0.000000	0.000000	0.000000	0.000000	2.548253	497.174848	-79.200080	0.185564	0.000000	-0.899605	0.000000	3.694993	0.000000	-1.395580	508.034208	89.322156	0.214333	0.000000	-1.573040	0.000000	-4.605685	-0.000000
0.629500	0.000000	0.000000	0.000000	0.000000	0.000000	0.000000	0.000000	0.000000	0.000000	0.000000	0.000000	0.000000	0.000000	0.000000	0.000000	0.000000	0.000000	0.000000	0.000000	0.000000	0.000000	0.000000	0.000000	0.000000	0.000000	0.000000	0.000000	2.525935	497.324079	-79.156669	0.185603	0.000000	-0.899591	0.000000	3.705434	0.000000	-1.395850	508.340029	89.428407	0.214379	0.000000	-1.573072	0.000000	-4.607716	-0.000000
0.630000	0.000000	0.000000	0.000000	0.000000	0.000000	0.000000	0.000000	0.000000	0.000000	0.000000	0.000000	0.000000	0.000000	0.000000	0.000000	0.000000	0.000000	0.000000	0.000000	0.000000	0.000000	0.000000	0.000000	0.000000	0.000000	0.000000	0.000000	2.506146	497.483246	-79.114978	0.185641	0.000000	-0.899577	0.000000	3.715930	0.000000	-1.395142	508.642704	89.532037	0.214426	0.000000	-1.573103	0.000000	-4.609737	-0.000000
0.630500	0.000000	0.000000	0.000000	0.000000	0.000000	0.000000	0.000000	0.000000	0.000000	0.000000	0.000000	0.000000	0.000000	0.000000	0.000000	0.000000	0.000000	0.000000	0.000000	0.000000	0.000000	0.000000	0.000000	0.000000	0.000000	0.000000	0.000000	2.488933	497.652491	-79.075093	0.185678	0.000000	-0.899563	0.000000	3.726483	0.000000	-1.393500	508.942367	89.633134	0.214472	0.000000	-1.573134	0.000000	-4.611748	-0.000000
0.631000	0.000000	0.000000	0.000000	0.000000	0.000000	0.000000	0.000000	0.000000	0.000000	0.000000	0.000000	0.000000	0.000000	0.000000	0.000000	0.000000	0.000000	0.000000	0.000000	0.000000	0.000000	0.000000	0.000000	0.000000	0.000000	0.000000	0.000000	2.474345	497.831936	-79.037091	0.185715	0.000000	-0.899549	0.000000	3.737096	0.000000	-1.390968	509.239163	89.731787	0.214518	0.000000	-1.573165	0.000000	-4.613748	-0.000000
